<?xml version="1.0" standalone="no"?>
<!DOCTYPE svg PUBLIC "-//W3C//DTD SVG 20010904//EN"
 "http://www.w3.org/TR/2001/REC-SVG-20010904/DTD/svg10.dtd">
<svg version="1.0" xmlns="http://www.w3.org/2000/svg"
 width="800.000000pt" height="800.000000pt" viewBox="0 0 800.000000 800.000000"
 preserveAspectRatio="xMidYMid meet">
<metadata>
Created by potrace 1.16, written by Peter Selinger 2001-2019
</metadata>
<g transform="translate(0.000000,800.000000) scale(0.100000,-0.100000)"
fill="#000000" stroke="none">
<path d="M2617 4277 c4 -6 -1 -8 -11 -4 -37 14 -168 -85 -151 -114 5 -7 4 -10
-2 -6 -14 9 -37 -48 -27 -64 4 -8 3 -10 -4 -5 -9 5 -12 -12 -12 -61 1 -223
234 -355 421 -238 42 27 102 102 93 116 -3 5 0 9 6 9 7 0 10 7 6 15 -3 8 -1
15 4 15 5 0 7 15 4 33 -4 24 -3 28 5 17 8 -12 11 -5 10 30 0 36 -2 41 -10 25
-7 -15 -8 -10 -3 18 3 26 2 37 -5 32 -6 -3 -8 0 -5 9 10 25 -64 135 -83 123
-5 -3 -20 4 -33 15 l-25 20 29 -17 c16 -9 25 -12 22 -6 -17 27 -73 44 -153 46
-53 1 -80 -2 -76 -8z m103 -28 c-12 -8 -9 -10 12 -6 17 2 25 0 21 -6 -4 -6 2
-8 15 -5 14 4 20 2 15 -5 -4 -6 0 -8 10 -4 9 3 19 1 23 -5 5 -7 2 -8 -7 -4 -8
4 -5 1 5 -8 10 -8 22 -13 26 -11 4 3 14 -3 21 -13 12 -15 12 -16 -1 -7 -9 6
-4 -1 10 -14 14 -13 18 -20 10 -16 -12 5 -12 4 1 -7 9 -7 14 -19 11 -27 -3 -8
0 -11 6 -7 6 4 8 -2 4 -16 -3 -11 -1 -19 4 -16 5 4 9 -20 9 -52 0 -32 -3 -56
-7 -53 -7 4 -9 -2 -12 -39 -2 -27 -94 -105 -141 -122 -60 -20 -78 -20 -142 -1
-78 23 -153 110 -153 177 0 10 -4 17 -10 13 -5 -3 -5 7 1 25 6 17 8 42 5 56
-4 16 -3 23 3 20 10 -6 25 27 26 54 0 8 5 15 10 15 6 0 29 15 50 34 22 18 34
30 26 26 -10 -6 -12 -4 -7 4 5 7 16 9 28 5 12 -3 18 -2 15 3 -4 6 5 8 21 6 21
-4 24 -2 12 6 -11 8 -2 11 40 11 42 0 51 -3 40 -11z"/>
<path d="M2630 4132 c-41 -20 -80 -74 -80 -111 0 -65 68 -131 135 -131 55 0
128 62 109 92 -4 7 -3 8 4 4 20 -12 14 65 -7 100 -19 31 -74 64 -108 64 -10 0
-34 -8 -53 -18z m77 -35 c-8 -6 -4 -7 10 -4 28 6 36 -6 41 -60 6 -79 -66 -119
-125 -69 -22 19 -28 33 -29 65 0 22 3 38 7 36 10 -7 30 20 22 29 -4 4 1 4 11
0 12 -5 17 -4 13 2 -3 6 9 10 29 10 22 0 29 -3 21 -9z"/>
</g>
</svg>
